<svg xmlns="http://www.w3.org/2000/svg">
    <symbol id="icon_ethereum" viewBox="0 0 87 139">
        <path d="M43.5,52.588 L43.5,0 L11.924,52.588 L43.5,52.588 Z M11.924,52.588 L0,72.446 L43.5,52.588 L11.924,52.588 Z" id="Shape" fill-opacity="0.4"></path>
        <path d="M75.076,52.588 L43.5,52.588 L87,72.446 L75.076,52.588 Z M75.076,52.588 L43.5,0 L43.5,52.588 L75.076,52.588 Z" id="Shape" fill-opacity="0.7"></path>
        <path d="M13.953,80.63 L43.509,98.157 L43.509,80.63 L13.953,80.63 Z M43.509,80.63 L43.509,52.493 L0,72.355 L13.953,80.63 L43.509,80.63 Z M87,72.355 L43.509,52.493 L43.509,80.63 L73.053,80.63 L87,72.355 Z M43.509,80.63 L43.509,98.157 L73.053,80.63 L43.509,80.63 Z" id="Shape"></path>
        <path d="M29.55,95.045 L12.392,95.045 L43.5,139 L43.5,103.311 L29.55,95.045 Z M29.55,95.045 L0,77.535 L12.392,95.045 L29.55,95.045 Z" id="Shape" fill-opacity="0.4"></path>
        <path d="M57.461,95.03 L43.5,103.3 L43.5,139 L74.632,95.03 L57.461,95.03 Z M87,77.535 L57.461,95.03 L74.632,95.03 L87,77.563 L87,77.535 Z" id="Shape" fill-opacity="0.7"></path>
    </symbol>
    <symbol id="icon_quark" viewBox="0 0 530 530">
        <path d="M238.6,528.4 C226.6,527.2 208.8,523.8 194.2,519.8 C138.1,504.4 87.9,470.3 52.9,423.8 C25.7,387.8 9.4,348.4 1.9,300.8 C-0.6,285 -0.5,244.3 2,228.3 C6.9,196.6 14.5,172.2 27.7,146 C68.2,65.5 146.4,11.1 235.6,1.2 C249.4,-0.3 279.2,-0.3 293.6,1.3 C365.6,8.8 433.2,47.5 477.2,106.5 C525.4,171.1 541.4,254.4 520.6,332.9 C505.7,389.3 471,440.6 424,476 C389.3,502.2 350.6,518.6 305.6,526.3 C291.7,528.7 254.3,529.8 238.6,528.4 Z M117.6,393.8 C119.2,393 121.8,390.6 123.3,388.6 C126.4,384.3 156.5,345.7 172.6,325.3 C178.4,317.9 188.1,305.6 194,298.1 C199.9,290.5 205.1,284.3 205.5,284.3 C206.2,284.3 214.4,294.6 236.3,322.8 C254,345.8 253.2,344.9 259.1,346.8 C263.5,348.1 265.2,348.2 268.7,347.3 C275.7,345.4 272.2,349.2 306,306 C315.3,294 323.2,284.3 323.5,284.3 C323.8,284.3 329.3,290.9 335.6,299 C341.9,307.1 355.8,324.7 366.4,338.2 C377.1,351.7 390.9,369.4 397.3,377.6 C403.6,385.7 410.1,393 411.6,393.8 C415.8,396 425.4,395.7 429.3,393.3 C436,389.2 435.6,397.9 435.6,265.3 C435.6,159.3 435.4,144.7 434.1,142 C431.7,137 428,134.9 421.1,134.5 C414,134.1 409.3,136.2 405.8,141.4 C403.4,144.9 401.7,147.1 392.5,158.8 C389.5,162.6 377.6,177.7 366.1,192.3 C354.6,206.9 340.6,224.8 334.8,232.1 C329.1,239.3 324,245.3 323.6,245.3 C323.2,245.3 321.6,243.6 320.1,241.6 C318.5,239.5 315,234.9 312.1,231.3 C309.3,227.7 302.8,219.4 297.6,212.8 C292.4,206.2 285.5,197.4 282.3,193.3 C273.6,182.3 267.9,179.7 258.7,182.8 C253.3,184.6 255.4,182.1 216,232.5 C210.6,239.6 205.7,245.3 205.1,245.2 C204.6,245.2 201.1,241.3 197.4,236.5 C193.8,231.7 177.4,210.9 161.1,190.3 C144.8,169.7 129,149.4 126,145.2 C119.9,136.5 116.4,134.3 108.9,134.3 C102.8,134.3 97.8,136.9 95.4,141.4 C93.7,144.6 93.6,150.5 93.6,265.1 C93.6,397.9 93.2,389.2 99.9,393.3 C103.8,395.7 113.4,396 117.6,393.8 Z" id="Shape"></path>
        <path d="M125.5,313.6 C125,201.2 125.1,184 126.3,183.6 C127.9,183 190.9,264.1 189.9,265.6 C189.5,266.3 180.4,278 169.6,291.7 C150.4,316.3 144.5,323.9 133.6,338.1 C130.6,342 127.5,345.2 126.9,345.3 C125.9,345.3 125.6,338.2 125.5,313.6 Z" id="Shape"></path>
        <path d="M399.4,342.6 C394.1,336.8 338.5,265 338.8,264.2 C339,263.8 342,259.7 345.7,255.1 C349.3,250.5 363.4,232.5 377,215 C390.6,197.5 402.3,183.4 402.9,183.6 C403.8,183.9 404,203.8 403.8,261.9 C403.7,304.7 403.5,341 403.6,342.6 C403.6,344.1 403.2,345.3 402.8,345.3 C402.3,345.3 400.8,344.1 399.4,342.6 Z" id="Shape"></path>
        <path d="M258.7,313.6 C256.3,311.2 232.1,280.9 223.2,269.1 C221.6,267 220.6,264.8 220.9,264.1 C221.8,262 257.5,216.9 259.7,215.1 C262.4,212.8 266.5,212.8 269.2,215.1 C271,216.5 305.7,260.5 307.9,264 C308.3,264.7 306.2,268.3 302.9,272.6 C281.8,299.7 271.1,313 269.4,314.6 C266.4,317.2 262.1,316.7 258.7,313.6 Z" id="Shape"></path>
    </symbol>
    <symbol id="icon_fantom" viewBox="0 0 98 162">
        <path d="M24,148.5 L0.5,135.1 L0.3,81.2 L0,27.4 L23.7,13.9 C36.7,6.5 47.7,0.2 48.2,0.1 C48.6,-0.1 59.8,5.9 73,13.4 C93.9,25.4 96.9,27.4 97.2,29.8 C97.4,31.2 97.4,55.6 97.2,83.9 L96.9,135.4 L73.5,148.7 C60.7,155.9 49.6,161.9 48.8,161.9 C48,161.9 36.8,155.9 24,148.5 Z M67.8,142.9 C77.8,137.2 85.9,132.5 85.8,132.4 C84,131 49.8,111.9 49,111.9 C46.7,111.9 11.8,132 12.6,132.9 C13.8,134 48.5,153.7 49,153.5 C49.3,153.3 57.7,148.6 67.8,142.9 Z M40,106.8 C40,106.4 33.8,102.6 26.3,98.3 C18.7,94.1 11.5,89.9 10.3,89.1 L8,87.7 L8,106.7 L8,125.8 L24,116.6 C32.8,111.5 40,107.1 40,106.8 Z M89.8,97.4 L89.5,87.9 L73.3,97.2 C64.4,102.2 57.5,106.8 57.9,107.2 C58.4,107.7 65.7,112 74.1,116.9 L89.5,125.6 L89.8,116.3 C89.9,111.1 89.9,102.6 89.8,97.4 Z M44.6,63.1 C44.1,62.7 17.6,77.3 13.7,80.1 C12.1,81.3 13.2,82.1 22.6,87.4 C28.4,90.7 35.7,94.9 38.8,96.6 L44.5,99.8 L44.8,81.7 C44.9,71.8 44.8,63.4 44.6,63.1 Z M72.8,88.7 C79.5,84.9 85,81.5 85,81.1 C85,80.5 56.6,64.1 53.9,63.1 C53.4,62.9 53,70.6 53,81.4 L53,100.1 L56.8,97.9 C58.8,96.7 66,92.5 72.8,88.7 Z M28.1,62.8 C38.8,56.6 48,51.6 48.7,51.6 C49.3,51.6 58.6,56.6 69.3,62.7 C79.9,68.9 89,73.9 89.4,73.9 C89.7,73.9 89.9,64.4 89.8,52.8 L89.5,31.7 L69.5,20.3 C58.5,14 49.1,8.9 48.5,9 C48,9 38.7,14.1 28,20.3 L8.5,31.6 L8.2,52.8 C8.1,64.4 8.1,73.9 8.4,73.9 C8.6,73.9 17.5,68.9 28.1,62.8 Z" id="Shape"></path>
    </symbol>
    <symbol id="icon_everi" viewBox="0 0 222 129">
        <g id="Group-2" transform="translate(55.000000, 1.000000)">
            <path fill-opacity="0.2" d="M53.1845703 19.3515625 74.3046875 31.4130859 0.855 95.478 56.005 63.774 92.858 0.017z"></path>
            <path fill-opacity="0.4" d="M56.005 63.774 166.465 63.828 166.466 63.828 92.858 0.017z"></path>
            <path fill-opacity="0.3" d="M56.005 63.774 92.787 127.589 166.466 63.826z"></path>
            <path fill-opacity="0.15" d="M0.855 95.478 92.762 127.548 56.005 63.774z"></path>
        </g>
        <g id="Group-3">
            <path fill-opacity="0.4" d="M0.585 64.684 0.585 64.684 37.465 64.607 74.318 0.852 74.318 0.852z"></path>
            <path fill-opacity="0.6" d="M37.451 64.643 129.34 32.52 74.302 0.888z"></path>
            <path fill-opacity="0.7" d="M37.451 64.643 55.855 96.478 129.34 32.52 129.34 32.52z"></path>
            <path fill-opacity="0.5" d="M0.585 64.684 74.226 128.436 37.465 64.607z"></path>
            <path fill-opacity="0.4" d="M74.23 128.471 110.851 115.668 55.855 96.478z"></path>
        </g>
    </symbol>
    <symbol id="icon_dollar" viewBox="0 0 484.184 484.184">
        <path d="M309.43,219.944c-19-10.5-39.2-18.5-59.2-26.8c-11.6-4.8-22.7-10.4-32.5-18.2c-19.3-15.4-15.6-40.4,7-50.3
		c6.4-2.8,13.1-3.7,19.9-4.1c26.2-1.4,51.1,3.4,74.8,14.8c11.8,5.7,15.7,3.9,19.7-8.4c4.2-13,7.7-26.2,11.6-39.3
		c2.6-8.8-0.6-14.6-8.9-18.3c-15.2-6.7-30.8-11.5-47.2-14.1c-21.4-3.3-21.4-3.4-21.5-24.9c-0.1-30.3-0.1-30.3-30.5-30.3
		c-4.4,0-8.8-0.1-13.2,0c-14.2,0.4-16.6,2.9-17,17.2c-0.2,6.4,0,12.8-0.1,19.3c-0.1,19-0.2,18.7-18.4,25.3c-44,16-71.2,46-74.1,94
		c-2.6,42.5,19.6,71.2,54.5,92.1c21.5,12.9,45.3,20.5,68.1,30.6c8.9,3.9,17.4,8.4,24.8,14.6c21.9,18.1,17.9,48.2-8.1,59.6
		c-13.9,6.1-28.6,7.6-43.7,5.7c-23.3-2.9-45.6-9-66.6-19.9c-12.3-6.4-15.9-4.7-20.1,8.6c-3.6,11.5-6.8,23.1-10,34.7
		c-4.3,15.6-2.7,19.3,12.2,26.6c19,9.2,39.3,13.9,60,17.2c16.2,2.6,16.7,3.3,16.9,20.1c0.1,7.6,0.1,15.3,0.2,22.9
		c0.1,9.6,4.7,15.2,14.6,15.4c11.2,0.2,22.5,0.2,33.7-0.1c9.2-0.2,13.9-5.2,13.9-14.5c0-10.4,0.5-20.9,0.1-31.3
		c-0.5-10.6,4.1-16,14.3-18.8c23.5-6.4,43.5-19,58.9-37.8C386.33,329.544,370.03,253.444,309.43,219.944z"/>
    </symbol>
</svg>
