<?xml version="1.0" encoding="UTF-8"?>
<svg width="339px" height="161px" viewBox="0 0 339 161" version="1.1" xmlns="http://www.w3.org/2000/svg" xmlns:xlink="http://www.w3.org/1999/xlink">
    <!-- Generator: Sketch 49.3 (51167) - http://www.bohemiancoding.com/sketch -->
    <title>∞</title>
    <desc>Created with Sketch.</desc>
    <defs>
        <linearGradient x1="50%" y1="2.44084176%" x2="50%" y2="98.2681539%" id="linearGradient-1">
            <stop stop-color="#0069FF" offset="0%"></stop>
            <stop stop-color="#0055CE" offset="100%"></stop>
        </linearGradient>
    </defs>
    <g id="Page-1" stroke="none" stroke-width="1" fill="none" fill-rule="evenodd">
        <path d="M173.562083,106.468867 C171.491628,104.052458 169.24867,104.052458 166.833139,106.468867 C160.621776,113.372893 154.324238,120.017918 147.940337,126.404142 C141.556436,132.790366 134.82756,138.486102 127.753507,143.491521 C120.679454,148.49694 113.001634,152.552994 104.719816,155.659806 C96.4379984,158.766617 87.2936284,160.32 77.2864319,160.32 C66.5890838,160.32 56.5820374,158.335122 47.2649923,154.365307 C37.9479473,150.395493 29.838789,144.872355 22.9372741,137.795728 C16.0357593,130.719102 10.6008978,122.261797 6.6325268,112.42356 C2.66415576,102.585323 0.68,91.7979443 0.68,80.0611003 C0.68,69.3598602 2.83669104,59.1765748 7.15013783,49.5109385 C11.4635846,39.8453023 17.2435166,31.3879974 24.4901072,24.1387702 C31.7366978,16.889543 40.2771943,11.1075081 50.111853,6.79249191 C59.9465117,2.47747573 70.3848963,0.32 81.4273201,0.32 C90.0542136,0.32 98.5084425,1.87338252 106.79026,4.98019417 C115.072078,8.08700583 122.836166,12.2293592 130.082757,17.4073786 C137.329347,22.5853981 144.058223,28.453732 150.269587,35.0125566 C156.48095,41.5713812 162.002079,48.3027055 166.833139,55.2067314 C168.558518,57.6231405 170.628941,57.6231405 173.044472,55.2067314 C185.122123,39.6726731 198.148537,26.6415197 212.124104,16.1128803 C226.099672,5.58424078 242.921862,0.32 262.591179,0.32 C273.288527,0.32 283.295574,2.30487767 292.612619,6.27469256 C301.929664,10.2445074 310.038822,15.7676453 316.940337,22.8442718 C323.841852,29.9208984 329.190446,38.2919042 332.986279,47.9575405 C336.782112,57.6231767 338.68,68.3242563 338.68,80.0611003 C338.68,90.7623405 336.609577,100.945626 332.468668,110.611262 C328.327759,120.276898 322.634094,128.820502 315.387504,136.24233 C308.140913,143.664158 299.600417,149.532492 289.765758,153.847508 C279.931099,158.162524 269.320179,160.32 257.93268,160.32 C249.650862,160.32 241.627971,158.766617 233.863767,155.659806 C226.099563,152.552994 218.680546,148.49694 211.606493,143.491521 C204.53244,138.486102 197.803564,132.790366 191.419663,126.404142 C185.035762,120.017918 179.083295,113.372893 173.562083,106.468867 Z M81.4273201,32.4235599 C75.2159567,32.4235599 69.1772218,33.7180453 63.3109342,36.307055 C57.4446465,38.8960647 52.268588,42.3480259 47.7826034,46.6630421 C43.2966187,50.9780583 39.6733778,55.9834019 36.9127718,61.6792233 C34.1521659,67.3750447 32.7718836,73.5022757 32.7718836,80.0611003 C32.7718836,93.8691521 37.5166039,105.346923 47.0061868,114.494757 C56.4957698,123.642592 67.6242955,128.21644 80.392098,128.21644 C93.850052,128.21644 106.445128,123.901489 118.177703,115.271456 C129.910278,106.641424 139.399719,96.2855405 146.646309,84.2034951 C147.681537,82.1322874 147.854072,80.0611107 147.16392,77.9899029 C143.713163,72.8118835 139.658584,67.4613437 135.000061,61.938123 C130.341539,56.4149023 125.16548,51.4958576 119.47173,47.1808414 C113.777981,42.8658252 107.739246,39.327565 101.355345,36.5659547 C94.9714433,33.8043443 88.3288349,32.4235599 81.4273201,32.4235599 Z M260.520735,32.4235599 C247.062781,32.4235599 234.726508,36.9111094 223.511547,45.886343 C212.296585,54.8615767 201.8582,65.5626563 192.19608,77.9899029 C190.470701,79.7159094 190.643236,81.614488 192.713691,83.6856958 C202.030736,95.4225398 211.951515,105.778423 222.476325,114.753657 C233.001135,123.728891 245.164872,128.21644 258.967902,128.21644 C265.179265,128.21644 271.218,126.921955 277.084288,124.332945 C282.950576,121.743935 288.040366,118.291974 292.353813,113.976958 C296.66726,109.661942 300.117966,104.570299 302.706034,98.701877 C305.294102,92.833455 306.588116,86.6199249 306.588116,80.0611003 C306.588116,66.2530485 302.015931,54.8615767 292.871424,45.886343 C283.726917,36.9111094 272.943462,32.4235599 260.520735,32.4235599 Z" id="∞" fill="url(#linearGradient-1)"></path>
    </g>
</svg>